<svg width="80" height="80" viewBox="0 0 80 80" fill="none" xmlns="http://www.w3.org/2000/svg">
<rect width="80" height="80" rx="40" fill="#266AFB"/>
<path d="M29.2032 46.4609C23.5845 46.4609 19 51.0444 19 56.7246V60.6895C19 61.5893 19.7268 62.3204 20.6213 62.3204H39.3785V56.7246C39.4065 51.0444 34.85 46.4609 29.2032 46.4609Z" stroke="white" stroke-width="2.10927" stroke-miterlimit="10" stroke-linecap="round"/>
<path d="M51.3225 46.4609H47.9121C43.2158 46.4609 39.4141 50.2852 39.4141 55.0093V62.3204H45.8994" stroke="white" stroke-width="2.10927" stroke-miterlimit="10" stroke-linecap="round"/>
<path d="M32.7031 41.5391V46.7138" stroke="white" stroke-width="2.10927" stroke-miterlimit="10" stroke-linecap="round"/>
<path d="M46.1094 41.5391V46.7138" stroke="white" stroke-width="2.10927" stroke-miterlimit="10" stroke-linecap="round"/>
<path d="M51.7908 24.7094V29.7147C51.7908 36.5758 46.2279 44.1681 39.4071 44.1681C32.5863 44.1681 27.0234 36.5758 27.0234 29.7147V24.625" stroke="white" stroke-width="2.10927" stroke-miterlimit="10" stroke-linecap="round"/>
<path d="M51.2344 24.6183L48.439 24.2808C42.4568 23.5496 36.3908 23.5496 30.4086 24.2808L27.6132 24.6183C26.8305 24.6183 26.1875 23.9714 26.1875 23.184V19.8091C26.1875 17.1655 28.34 15 30.9677 15H47.9079C50.5356 15 52.688 17.1655 52.688 19.8091V23.184C52.6601 23.9714 52.0171 24.6183 51.2344 24.6183Z" stroke="white" stroke-width="2.10927" stroke-miterlimit="10" stroke-linecap="round"/>
<path d="M26.3514 33.0263C25.0656 32.9419 24.0312 31.7607 24.0312 30.2983C24.0312 28.8359 25.0656 27.6266 26.3514 27.5703" stroke="white" stroke-width="2.10927" stroke-miterlimit="10" stroke-linecap="round"/>
<path d="M52.4609 33.0263C53.7468 32.9419 54.7811 31.7607 54.7811 30.2983C54.7811 28.8359 53.7468 27.6266 52.4609 27.5703" stroke="white" stroke-width="2.10927" stroke-miterlimit="10" stroke-linecap="round"/>
<path d="M40.8653 39.8091H37.9861C36.169 39.8091 34.6875 38.3185 34.6875 36.4905C34.6875 34.6624 36.169 33.1719 37.9861 33.1719H40.8653C42.6824 33.1719 44.1639 34.6624 44.1639 36.4905C44.136 38.3185 42.6544 39.8091 40.8653 39.8091Z" stroke="white" stroke-width="2.10927" stroke-miterlimit="10" stroke-linecap="round"/>
<path d="M27.4688 33.1719C27.4688 33.1719 30.2642 35.9842 34.653 36.8561" stroke="white" stroke-width="2.10927" stroke-miterlimit="10" stroke-linecap="round"/>
<path d="M51.3404 33.1719C51.3404 33.1719 48.545 35.9842 44.1562 36.8561" stroke="white" stroke-width="2.10927" stroke-miterlimit="10" stroke-linecap="round"/>
<path d="M44.6876 29.1405C45.3824 29.1405 45.9455 28.5739 45.9455 27.8749C45.9455 27.176 45.3824 26.6094 44.6876 26.6094C43.9929 26.6094 43.4297 27.176 43.4297 27.8749C43.4297 28.5739 43.9929 29.1405 44.6876 29.1405Z" fill="white"/>
<path d="M34.6798 29.1405C35.3745 29.1405 35.9377 28.5739 35.9377 27.8749C35.9377 27.176 35.3745 26.6094 34.6798 26.6094C33.9851 26.6094 33.4219 27.176 33.4219 27.8749C33.4219 28.5739 33.9851 29.1405 34.6798 29.1405Z" fill="white"/>
<path d="M50.7247 65.4794C48.4045 64.6639 48.097 60.4178 48.8517 58.2526L53.576 44.6708C54.0792 43.2367 55.6167 42.5056 57.0144 43.0118L59.698 43.9678C61.1236 44.474 61.8504 46.0206 61.3472 47.4265L56.623 61.0083C55.8962 63.1735 53.1567 66.3511 50.7247 65.4794Z" stroke="white" stroke-width="2.10927" stroke-miterlimit="10" stroke-linecap="round"/>
<path d="M61.015 44.8974C61.015 44.8974 60.4839 43.6883 61.3784 42.2542C62.273 40.8201 64.8727 38.5143 63.6986 31.4844C63.6986 31.4844 56.6262 33.509 56.9617 40.089C56.9617 40.089 57.1574 42.7041 54.7812 43.2384" stroke="white" stroke-width="2.10927" stroke-miterlimit="10" stroke-linecap="round"/>
<path d="M55.3047 47.7109L58.2958 48.7796" stroke="white" stroke-width="2.10927" stroke-miterlimit="10" stroke-linecap="round"/>
<path d="M54.3594 50.2188L57.3505 51.2875" stroke="white" stroke-width="2.10927" stroke-miterlimit="10" stroke-linecap="round"/>
<path d="M53.3828 52.6875L56.4019 53.7281" stroke="white" stroke-width="2.10927" stroke-miterlimit="10" stroke-linecap="round"/>
</svg>
