<svg width="80" height="80" viewBox="0 0 80 80" fill="none" xmlns="http://www.w3.org/2000/svg">
<rect width="80" height="80" rx="40" fill="#014B11"/>
<path d="M41.3672 23.6831V20.1675C41.3672 18.978 42.3314 18 43.504 18H46.9699C48.1425 18 49.1067 18.978 49.1067 20.1675V23.6831" stroke="white" stroke-width="2.3458" stroke-miterlimit="10" stroke-linecap="round" stroke-linejoin="round"/>
<path d="M45.2607 30.2408C47.6786 30.2408 49.6387 28.2527 49.6387 25.8001C49.6387 23.3476 47.6786 21.3594 45.2607 21.3594C42.8429 21.3594 40.8828 23.3476 40.8828 25.8001C40.8828 28.2527 42.8429 30.2408 45.2607 30.2408Z" stroke="white" stroke-width="2.3458" stroke-miterlimit="10" stroke-linecap="round" stroke-linejoin="round"/>
<path d="M20.0029 40.0143C22.4208 40.0143 24.3808 38.0261 24.3808 35.5735C24.3808 33.121 22.4208 31.1328 20.0029 31.1328C17.5851 31.1328 15.625 33.121 15.625 35.5735C15.625 38.0261 17.5851 40.0143 20.0029 40.0143Z" stroke="white" stroke-width="2.3458" stroke-miterlimit="10" stroke-linecap="round" stroke-linejoin="round"/>
<path d="M41.45 26.7969H49.0072C49.2417 26.7969 49.372 27.0348 49.2677 27.2462L48.4078 28.8586L46.714 29.9688H43.7693L41.867 28.6208L41.1894 27.2462C41.0852 27.0348 41.2415 26.7969 41.45 26.7969Z" fill="white"/>
<path d="M34.9873 54.7366C34.3879 54.7366 33.7885 54.5252 33.3195 54.1551L18.8828 42.8682C17.658 41.8902 15.8599 42.1281 14.8957 43.3969L14.583 43.7934C13.6449 45.0357 13.8534 46.8596 15.1042 47.8376L30.9481 60.2083C31.5996 60.7369 32.4074 61.0012 33.2413 61.0012H57.815C58.675 61.0012 59.4307 60.6576 60.004 60.0761C60.5512 59.521 60.916 58.728 60.916 57.8557C60.916 56.1376 59.5349 54.7102 57.815 54.7102H34.9873V54.7366Z" stroke="white" stroke-width="2.3458" stroke-miterlimit="10" stroke-linecap="round" stroke-linejoin="round"/>
<path d="M33.6498 54.2864C33.8843 54.4714 34.197 54.5771 34.5097 54.5771L42.119 54.7357C42.562 54.7357 43.005 54.63 43.3959 54.445L47.6956 52.3832C48.3471 52.066 49.1028 51.9867 49.8064 52.1982L58.2496 54.4978C59.0835 54.7357 59.9695 54.3657 60.4125 53.5991C61.0118 52.5682 60.5688 51.2466 59.4743 50.7972L49.181 46.4622C48.3471 46.1186 47.435 46.1186 46.6012 46.4358L40.8942 48.6826C40.7118 48.7619 40.5033 48.7883 40.3209 48.7883H35.7345C35.2394 48.7883 34.7443 48.6297 34.3534 48.3125L26.4835 42.1801C26.0145 41.81 25.4412 41.625 24.8679 41.625C24.0861 41.625 23.3043 41.9951 22.7832 42.6559C21.8971 43.8189 22.1056 45.4842 23.2522 46.3829L33.6498 54.2864Z" stroke="white" stroke-width="2.3458" stroke-miterlimit="10" stroke-linecap="round" stroke-linejoin="round"/>
<path d="M29.1797 44.2431L38.6912 34.4629C39.4209 33.6964 40.4372 33.2734 41.5056 33.2734H49.2191C50.2615 33.2734 51.2778 33.6964 52.0335 34.4629L58.6525 41.2826C59.2258 41.8641 59.33 42.7893 58.887 43.4765L55.3691 49.0275" stroke="white" stroke-width="2.3458" stroke-miterlimit="10" stroke-linecap="round" stroke-linejoin="round"/>
<path d="M49.9688 39.6016L52.0539 41.8748C52.6013 42.4563 52.6534 43.355 52.2103 44.0159L50.2555 46.8971" stroke="white" stroke-width="2.3458" stroke-miterlimit="10" stroke-linecap="round" stroke-linejoin="round"/>
<path d="M33.0078 47.2233L39.4183 40.43C39.705 40.1393 40.2001 40.3243 40.2001 40.7472V48.7828" stroke="white" stroke-width="2.3458" stroke-miterlimit="10" stroke-linecap="round" stroke-linejoin="round"/>
</svg>
