<svg width="80" height="80" viewBox="0 0 80 80" fill="none" xmlns="http://www.w3.org/2000/svg">
<rect width="80" height="80" rx="40" fill="#B2EAFF"/>
<path d="M34.9689 57.9609H60.6556C61.5151 57.9609 62.2273 58.8855 62.2273 59.9805C62.2273 61.0754 61.5151 62.0001 60.6556 62.0001H19.5717C18.7367 62.0001 18 61.0754 18 59.9805C18 58.8855 18.7122 57.9609 19.5717 57.9609H21.0451" stroke="#003588" stroke-width="2.21136" stroke-miterlimit="10" stroke-linecap="round" stroke-linejoin="round"/>
<path d="M55.2769 23.4568L55.4734 23.2378L57.0942 21.3886C57.4871 20.9263 57.438 20.2206 56.9714 19.8313L56.3083 19.2717C55.8418 18.858 55.1296 18.931 54.7367 19.3934L52.9686 21.4372L51.1514 23.5298L23.5492 55.2101C23.2054 55.6237 23.23 57.0593 24.114 57.1567C25.9313 57.1567 35.3366 56.8403 42.6792 48.6161C46.9276 43.8714 48.4255 37.837 46.0435 35.2092C45.7734 34.8928 45.7734 34.4305 46.0435 34.1142L53.4843 25.5737L55.2769 23.4568Z" stroke="#003588" stroke-width="2.21136" stroke-miterlimit="10" stroke-linecap="round" stroke-linejoin="round"/>
</svg>
