<svg width="80" height="80" viewBox="0 0 80 80" fill="none" xmlns="http://www.w3.org/2000/svg">
<rect width="80" height="80" rx="40" fill="#266AFB"/>
<path d="M18.1416 35.4261C17.6164 31.7509 18.5167 28.0756 21.4425 25.0956C24.1682 22.3392 28.1193 20.2283 32.7956 21.2713C36.5966 22.1156 39.0473 24.7728 40.0476 26.1386C40.2726 26.4366 40.7228 26.4366 40.9478 26.1386C41.9731 24.7976 44.3988 22.1405 48.1998 21.2713C52.8761 20.2283 56.8272 22.3392 59.5529 25.0956C66.93 32.5455 61.3534 44.3412 53.2762 49.7796C49.9503 52.0146 44.8989 55.5657 42.5483 57.8503C41.8731 58.496 41.3229 59.0919 40.9228 59.5638C40.6977 59.8121 40.3227 59.8121 40.0976 59.5638C39.6975 59.0919 39.1473 58.496 38.4721 57.8503C36.1215 55.5905 31.0451 52.0394 27.7442 49.7796C24.9184 47.8675 22.8428 45.9056 21.0674 42.9009" stroke="white" stroke-width="2.25" stroke-miterlimit="10" stroke-linecap="round" stroke-linejoin="round"/>
<path d="M19.1953 39.2948H25.8221L27.7977 36.1162L30.4734 43.2929L33.6243 27.375L37.2503 47.9864L41.7765 35.3712L44.4773 43.3426L46.8779 39.2948H53.0546" stroke="white" stroke-width="2.25" stroke-miterlimit="10" stroke-linecap="round" stroke-linejoin="round"/>
<path d="M53.0453 41.2596C54.1361 41.2596 55.0203 40.3812 55.0203 39.2978C55.0203 38.2143 54.1361 37.3359 53.0453 37.3359C51.9546 37.3359 51.0703 38.2143 51.0703 39.2978C51.0703 40.3812 51.9546 41.2596 53.0453 41.2596Z" fill="white"/>
</svg>
