<svg width="80" height="80" viewBox="0 0 80 80" fill="none" xmlns="http://www.w3.org/2000/svg">
<rect width="80" height="80" rx="40" fill="#003588"/>
<path d="M39.8466 28.0188C43.1835 28.0188 45.8886 25.3283 45.8886 22.0094C45.8886 18.6905 43.1835 16 39.8466 16C36.5098 16 33.8047 18.6905 33.8047 22.0094C33.8047 25.3283 36.5098 28.0188 39.8466 28.0188Z" stroke="white" stroke-width="2.3502" stroke-miterlimit="10" stroke-linecap="round" stroke-linejoin="round"/>
<path d="M39.8492 30.9688H35.0681C32.809 30.9688 30.7337 32.2751 29.8142 34.3392L26.9509 40.5838C26.6357 41.2631 26.1103 41.8379 25.4798 42.2559L18.3345 46.6455C16.9948 47.4554 16.6008 49.2059 17.4414 50.5123C18.2557 51.7926 19.9632 52.1845 21.2767 51.4007L29.499 46.4364C30.1558 46.0445 30.6812 45.4958 31.0227 44.8165L33.8072 39.5387" stroke="white" stroke-width="2.3502" stroke-miterlimit="10" stroke-linecap="round" stroke-linejoin="round"/>
<path d="M31.616 43.6406V48.422C31.616 49.5716 31.0381 50.6428 30.0661 51.2699L23.7352 55.4242C21.765 56.7306 21.2659 59.3957 22.6582 61.303C23.4463 62.3742 24.7072 63.0013 26.0207 63.0013H39.8121" stroke="white" stroke-width="2.3502" stroke-miterlimit="10" stroke-linecap="round" stroke-linejoin="round"/>
<path d="M39.8516 30.9688H44.6326C46.8917 30.9688 48.967 32.2751 49.8864 34.3392L52.7498 40.5838C53.0651 41.2631 53.5904 41.8379 54.2209 42.2559L61.3662 46.6455C62.7059 47.4554 63.0999 49.2059 62.2593 50.5123C61.445 51.7926 59.7375 52.1845 58.424 51.4007L50.2017 46.4364C49.545 46.0445 49.0196 45.4958 48.6781 44.8165L45.8935 39.5387" stroke="white" stroke-width="2.3502" stroke-miterlimit="10" stroke-linecap="round" stroke-linejoin="round"/>
<path d="M48.0767 43.6406V48.422C48.0767 49.5716 48.6546 50.6428 49.6266 51.2699L55.9575 55.4242C57.9277 56.7306 58.4268 59.3957 57.0345 61.303C56.2464 62.3742 54.9855 63.0013 53.672 63.0013H39.8806H35.0733C33.0768 63.0013 31.4219 61.3814 31.4219 59.3696C31.4219 57.4622 32.893 55.8946 34.8106 55.7639L45.8963 54.9801" stroke="white" stroke-width="2.3502" stroke-miterlimit="10" stroke-linecap="round" stroke-linejoin="round"/>
<path d="M40.2903 51.3954C40.1853 51.3954 40.1065 51.3693 40.0539 51.291L37.427 48.6782C36.6389 47.8943 36.6389 46.5879 37.427 45.8041C37.821 45.4122 38.3202 45.2031 38.8718 45.2031C39.4235 45.2031 39.9226 45.4122 40.3166 45.8041C40.7106 45.4122 41.2098 45.2031 41.7614 45.2031C42.3131 45.2031 42.8122 45.4122 43.2063 45.8041C43.6003 46.196 43.8104 46.6924 43.8104 47.2411C43.8104 47.7637 43.6003 48.2863 43.2063 48.6782L40.5793 51.291C40.4742 51.3693 40.3692 51.3954 40.2903 51.3954Z" fill="white"/>
</svg>
