<svg width="80" height="80" viewBox="0 0 80 80" fill="none" xmlns="http://www.w3.org/2000/svg">
<rect width="80" height="80" rx="40" fill="#014B11"/>
<path d="M43.8501 38.0135C43.8501 33.691 40.3884 31.2656 36.1164 31.2656C31.8445 31.2656 28.3828 33.691 28.3828 38.0135C28.3828 42.336 33.4404 46.9465 36.1164 46.9465C37.6141 46.9465 39.5045 45.8419 41.0267 44.209" stroke="white" stroke-width="2.18909" stroke-miterlimit="10" stroke-linecap="round" stroke-linejoin="round"/>
<path d="M43.8035 37.0386C43.8035 37.0386 48.1245 31.2753 42.4531 27.2891" stroke="white" stroke-width="2.18909" stroke-miterlimit="10" stroke-linecap="round" stroke-linejoin="round"/>
<path d="M28.4708 36.936C28.4708 36.936 25.9174 33.2619 28.4708 28.6993C31.0241 24.1127 34.9032 23.2482 36.8427 23.0801C38.7823 22.912 42.0721 23.5364 42.244 26.1779C42.4404 28.8194 41.9985 30.7405 39.0523 31.8451" stroke="white" stroke-width="2.18909" stroke-miterlimit="10" stroke-linecap="round" stroke-linejoin="round"/>
<path d="M28.598 28.4593C28.598 28.4593 26.6094 24.497 31.4705 21.3272C36.3071 18.1574 40.579 21.3753 40.3335 23.6085" stroke="white" stroke-width="2.18909" stroke-miterlimit="10" stroke-linecap="round" stroke-linejoin="round"/>
<path d="M37.5661 27.8178C37.5661 27.8178 32.3858 26.0888 28.1875 29.2346" stroke="white" stroke-width="2.18909" stroke-miterlimit="10" stroke-linecap="round" stroke-linejoin="round"/>
<path d="M39.6306 45.3906V47.84C39.6306 47.84 47.1923 48.8006 48.3217 52.2585C49.451 55.7165 49.2792 58.8863 49.2792 60.135H36.1688H36.1197H23.0094C23.0094 58.8863 22.8375 55.7165 23.9669 52.2585C25.0962 48.8006 32.658 47.84 32.658 47.84V45.3906" stroke="white" stroke-width="2.18909" stroke-miterlimit="10" stroke-linecap="round" stroke-linejoin="round"/>
<path d="M60.9909 53.5462C60.058 54.8429 58.2166 55.1551 56.9154 54.2426L46.1374 46.8464C44.8116 45.9339 44.4925 44.1328 45.4254 42.8601C46.3584 41.5634 48.1997 41.2512 49.5009 42.1637L60.2789 49.5599C61.5801 50.4725 61.8993 52.2494 60.9909 53.5462Z" stroke="white" stroke-width="2.18909" stroke-miterlimit="10" stroke-linecap="round" stroke-linejoin="round"/>
<path d="M45.4315 42.8371L41.0859 39.8594" stroke="white" stroke-width="2.18909" stroke-miterlimit="10" stroke-linecap="round" stroke-linejoin="round"/>
<path d="M61.8992 52.2626L60.0781 54.7969L62.8499 56.7023L64.671 54.168L61.8992 52.2626Z" stroke="white" stroke-width="2.18909" stroke-miterlimit="10" stroke-linecap="round" stroke-linejoin="round"/>
<path d="M65.9595 56.9749C67.09 55.4017 67.5118 53.7863 66.9017 53.3669C66.2916 52.9475 64.8806 53.8828 63.7501 55.4561C62.6196 57.0293 62.1977 58.6447 62.8078 59.0641C63.4179 59.4835 64.8289 58.5482 65.9595 56.9749Z" stroke="white" stroke-width="2.18909" stroke-miterlimit="10" stroke-linecap="round" stroke-linejoin="round"/>
<path d="M56.3047 53.839L57.0903 52.7344" stroke="white" stroke-width="1.45939" stroke-miterlimit="10" stroke-linecap="round" stroke-linejoin="round"/>
<path d="M48.1328 48.214L48.9185 47.1094" stroke="white" stroke-width="1.45939" stroke-miterlimit="10" stroke-linecap="round" stroke-linejoin="round"/>
<path d="M51.9141 50.8155L52.6997 49.7109" stroke="white" stroke-width="1.45939" stroke-miterlimit="10" stroke-linecap="round" stroke-linejoin="round"/>
<path d="M54.0938 52.3273L55.9596 49.7578" stroke="white" stroke-width="1.45939" stroke-miterlimit="10" stroke-linecap="round" stroke-linejoin="round"/>
<path d="M50.0234 49.507L51.8648 46.9375" stroke="white" stroke-width="1.45939" stroke-miterlimit="10" stroke-linecap="round" stroke-linejoin="round"/>
</svg>
