<svg width="80" height="80" viewBox="0 0 80 80" fill="none" xmlns="http://www.w3.org/2000/svg">
<rect width="80" height="80" rx="40" fill="#266AFB"/>
<g clip-path="url(#clip0_426_29468)">
<mask id="mask0_426_29468" style="mask-type:luminance" maskUnits="userSpaceOnUse" x="15" y="14" width="51" height="52">
<path d="M15 14.9811H65.183V65.1641H15V14.9811Z" fill="white"/>
</mask>
<g mask="url(#mask0_426_29468)">
<path d="M16.7344 37.1262C17.3986 39.1736 18.4474 41.1717 19.6799 42.9825C20.7454 44.5479 23.9023 51.1115 26.4532 56.5386C27.6117 59.0035 31.2389 58.5832 31.8041 55.9189L34.1108 45.0438C34.3939 43.9905 35.8885 43.9905 36.1715 45.0438L38.4783 55.9189C39.0434 58.5832 42.6706 59.0035 43.8292 56.5386C44.0515 56.0654 44.2785 55.5836 44.5084 55.0973" stroke="white" stroke-width="1.96027" stroke-miterlimit="10" stroke-linecap="round" stroke-linejoin="round"/>
<path d="M54.2459 33.9375C54.4126 32.3311 54.2829 30.7381 53.7619 29.2241C52.5947 25.8325 50.2098 23.337 47.2187 22.3779C43.0354 21.0364 39.3996 23.1352 37.0619 24.7813C35.9127 25.5904 34.3778 25.5904 33.2286 24.7813C30.891 23.1352 27.2551 21.0364 23.0718 22.3779C20.3682 23.2448 18.1599 25.367 16.8984 28.2715" stroke="white" stroke-width="1.96027" stroke-miterlimit="10" stroke-linecap="round" stroke-linejoin="round"/>
<path d="M40.3076 27.1439C37.7293 28.4418 34.587 27.4037 33.2891 24.8254" stroke="white" stroke-width="1.96027" stroke-miterlimit="10" stroke-linecap="round" stroke-linejoin="round"/>
<path d="M64.1942 46.0712C64.1942 52.5644 58.9723 57.8281 52.5307 57.8281C46.0892 57.8281 40.8672 52.5644 40.8672 46.0712C40.8672 39.5781 46.0892 34.3144 52.5307 34.3144C58.9723 34.3144 64.1942 39.5781 64.1942 46.0712Z" stroke="white" stroke-width="1.96027" stroke-miterlimit="10" stroke-linecap="round" stroke-linejoin="round"/>
<path d="M57.2203 43.673H54.8984V41.331C54.8984 40.6696 54.3665 40.1334 53.7103 40.1334H51.3621C50.706 40.1334 50.1741 40.6696 50.1741 41.331V43.673H47.8522C47.1961 43.673 46.6641 44.2093 46.6641 44.8707V47.2393C46.6641 47.9008 47.1961 48.4369 47.8522 48.4369H50.1741V50.7789C50.1741 51.4404 50.706 51.9766 51.3621 51.9766H53.7103C54.3665 51.9766 54.8984 51.4404 54.8984 50.7789V48.4369H57.2203C57.8764 48.4369 58.4084 47.9008 58.4084 47.2393V44.8707C58.4084 44.2093 57.8764 43.673 57.2203 43.673Z" stroke="white" stroke-width="1.96027" stroke-miterlimit="10" stroke-linecap="round" stroke-linejoin="round"/>
</g>
</g>
<defs>
<clipPath id="clip0_426_29468">
<rect width="50" height="50" fill="white" transform="translate(15 15)"/>
</clipPath>
</defs>
</svg>
