<svg width="80" height="80" viewBox="0 0 80 80" fill="none" xmlns="http://www.w3.org/2000/svg">
<rect width="80" height="80" rx="40" fill="#266AFB"/>
<path d="M27.4976 29.6026C27.4976 29.6026 27.3741 19.5284 39.8116 18.1285C52.249 16.7286 54.6181 27.1778 54.7168 29.6026C54.8155 32.0274 54.618 37.127 53.7543 39.6268C52.8906 42.1266 50.0033 46.1013 48.3993 47.6012C43.8586 51.8509 42.7235 55.6006 41.7611 57.6754C40.7987 59.7503 38.553 63 34.2592 63C29.9653 63 26.7572 58.3254 25.9922 56.7005" stroke="white" stroke-width="2.24983" stroke-miterlimit="10" stroke-linecap="round" stroke-linejoin="round"/>
<path d="M38.9757 23.6484C38.9757 23.6484 33.3986 28.5481 33.2999 31.4728C33.2012 34.3976 30.1906 36.4725 30.1906 37.7724C30.1906 39.0722 32.2388 41.672 34.5831 41.997C36.9275 42.322 30.0672 46.0967 30.1906 47.5716C30.2893 49.0465 28.6852 52.1962 34.5831 53.9461" stroke="white" stroke-width="2.24983" stroke-miterlimit="10" stroke-linecap="round" stroke-linejoin="round"/>
<path d="M43.2188 28.125C43.2188 28.125 46.3281 32.5496 46.106 35.0495C45.8839 37.5743 44.502 41.149 44.6747 42.5739" stroke="white" stroke-width="2.24983" stroke-miterlimit="10" stroke-linecap="round" stroke-linejoin="round"/>
</svg>
