<svg width="80" height="80" viewBox="0 0 80 80" fill="none" xmlns="http://www.w3.org/2000/svg">
<rect width="80" height="80" rx="40" fill="#014B11"/>
<path d="M35.1256 17.7031C35.1256 17.7031 31.4765 17.8039 30.2767 19.8188C30.2767 19.8188 23.7282 19.2395 20.8039 24.5791C17.8796 29.9186 19.8541 32.261 19.8541 32.261C19.8541 32.261 17.0798 35.6108 17.5547 41.0762" stroke="white" stroke-width="2.24995" stroke-miterlimit="10" stroke-linecap="round" stroke-linejoin="round"/>
<path d="M22.6094 44.0469C22.6094 44.0469 26.5585 41.4778 26.3336 33.9219C26.3336 33.9219 25.7337 39.6896 28.0081 45.2306C28.0081 45.2306 27.2833 54.0963 28.0081 56.2119C28.733 58.3276 33.4819 61.4508 33.4819 61.4508" stroke="white" stroke-width="2.24995" stroke-miterlimit="10" stroke-linecap="round" stroke-linejoin="round"/>
<path d="M44.875 17.7031C44.875 17.7031 48.5242 17.8039 49.7239 19.8188C49.7239 19.8188 56.2724 19.2395 59.1967 24.5791C62.121 29.9186 60.1465 32.261 60.1465 32.261C60.1465 32.261 62.9208 35.6108 62.4459 41.0762" stroke="white" stroke-width="2.24995" stroke-miterlimit="10" stroke-linecap="round" stroke-linejoin="round"/>
<path d="M57.3881 44.0469C57.3881 44.0469 53.439 41.4778 53.6639 33.9219C53.6639 33.9219 54.2638 39.6896 51.9894 45.2306C51.9894 45.2306 52.7142 54.0963 51.9894 56.2119C51.2645 58.3276 46.5156 61.4508 46.5156 61.4508" stroke="white" stroke-width="2.24995" stroke-miterlimit="10" stroke-linecap="round" stroke-linejoin="round"/>
<path d="M34.2281 40.6691C34.587 40.6691 34.8781 40.3759 34.8781 40.0142C34.8781 39.6525 34.587 39.3594 34.2281 39.3594C33.8691 39.3594 33.5781 39.6525 33.5781 40.0142C33.5781 40.3759 33.8691 40.6691 34.2281 40.6691Z" fill="white"/>
<path d="M46.8922 40.6691C47.2512 40.6691 47.5422 40.3759 47.5422 40.0142C47.5422 39.6525 47.2512 39.3594 46.8922 39.3594C46.5332 39.3594 46.2422 39.6525 46.2422 40.0142C46.2422 40.3759 46.5332 40.6691 46.8922 40.6691Z" fill="white"/>
<path d="M30.1328 44.502C30.1328 44.502 36.4563 46.0384 38.6808 44.0234" stroke="white" stroke-width="2.24995" stroke-miterlimit="10" stroke-linecap="round" stroke-linejoin="round" stroke-dasharray="5.2 5.2"/>
<path d="M49.7902 44.502C49.7902 44.502 43.4667 46.0384 41.2422 44.0234" stroke="white" stroke-width="2.24995" stroke-miterlimit="10" stroke-linecap="round" stroke-linejoin="round" stroke-dasharray="5.2 5.2"/>
</svg>
