<svg width="80" height="80" viewBox="0 0 80 80" fill="none" xmlns="http://www.w3.org/2000/svg">
<rect width="80" height="80" rx="40" fill="#014B11"/>
<path d="M31.5142 51.6742C26.9917 51.7583 23.3359 55.4575 23.3359 60V62.5C23.3359 63.8783 24.4576 65 25.8359 65H54.1692C55.5476 65 56.6692 63.8783 56.6692 62.5V60C56.6692 55.4567 53.0126 51.7567 48.4884 51.6742C48.2034 51.5717 46.6067 50.8783 45.2434 47.9675C45.6709 47.6475 46.0626 47.3092 46.4167 46.9533C47.4009 47.3092 48.5951 47.5 50.0026 47.5C52.6734 47.5 54.1551 46.5458 54.9234 45.7492C55.2742 45.3908 55.4476 44.8975 55.3984 44.395C55.3492 43.8808 55.0767 43.4167 54.6409 43.1158C54.0059 42.6908 52.5267 41.1392 52.4942 35.925V35.6767C52.5009 32.9875 52.5026 30.7883 52.5026 30.1758L55.6101 23.1642C56.0417 22.3 55.8392 21.255 55.1184 20.6217C52.7234 18.5233 47.5742 15 40.0026 15C32.4309 15 27.2817 18.5233 24.8851 20.6225C24.1651 21.2558 23.9634 22.3008 24.3784 23.1308L27.5026 30.1767C27.5026 30.79 27.5042 32.9875 27.5109 35.675V35.9208C27.4784 41.14 25.9992 42.6917 25.3542 43.1242C24.9276 43.4183 24.6551 43.8817 24.6068 44.3958C24.5576 44.8983 24.7309 45.3917 25.0776 45.7458C25.8501 46.5467 27.3317 47.5 30.0026 47.5C31.4101 47.5 32.6034 47.3092 33.5876 46.9533C33.9417 47.3092 34.3334 47.6483 34.7609 47.9675C33.4034 50.8625 31.7917 51.5708 31.5142 51.6742ZM55.0026 60V62.5C55.0026 62.96 54.6292 63.3333 54.1692 63.3333H25.8359C25.3759 63.3333 25.0026 62.96 25.0026 62.5V60C25.0026 56.4833 27.7409 53.6017 31.1967 53.3575C32.0059 54.7075 34.6717 58.5108 39.7742 59.9683C39.8492 59.9892 39.9259 60 40.0026 60C40.0792 60 40.1567 59.9892 40.2309 59.9683C45.3334 58.5108 47.9992 54.7075 48.8084 53.3575C52.2642 53.6017 55.0026 56.4833 55.0026 60ZM47.1509 52.855C46.2526 54.2092 43.9526 57.0858 40.0026 58.2975C36.0517 57.0858 33.7517 54.2083 32.8542 52.855C33.7334 52.3167 35.0492 51.175 36.1742 48.8658C36.8159 49.2067 37.5176 49.5083 38.3001 49.7467C38.8567 49.9175 39.4292 50.0033 40.0026 50.0033C40.5759 50.0033 41.1476 49.9175 41.7042 49.7467C42.4876 49.5083 43.1884 49.2067 43.8309 48.8658C44.9559 51.175 46.2709 52.3167 47.1509 52.855ZM53.7134 44.5017L54.1776 43.8092L53.7284 44.5892C53.1809 45.1575 52.0884 45.8342 50.0026 45.8342C49.0851 45.8342 48.2759 45.7375 47.5826 45.5675C49.3342 43.1017 49.8234 40.3583 49.9534 39.0733C50.3217 38.9833 50.6692 38.8242 50.9876 38.6167C51.4201 42.1917 52.6517 43.79 53.7134 44.5017ZM29.1717 32.9942C29.1701 31.8917 29.1692 31.0167 29.1692 30.5033C30.3559 29.9217 34.1301 28.3333 40.0026 28.3333C40.2492 28.3333 40.4826 28.3425 40.7217 28.3483C39.4701 30.0967 36.7176 32.4625 30.9642 32.5C30.3076 32.5042 29.6959 32.6875 29.1717 32.9942ZM50.8326 33.0017C50.3034 32.6875 49.6876 32.5 49.0351 32.5C45.5317 32.5 44.1717 30.3517 43.6451 28.5467C47.4459 29 49.9176 30.0533 50.8351 30.5033C50.8351 31.0175 50.8342 31.895 50.8326 33.0017ZM25.9851 21.8758C28.2042 19.93 32.9776 16.6667 40.0026 16.6667C47.0276 16.6667 51.8009 19.93 54.0192 21.8758C54.1726 22.0092 54.2126 22.2333 54.1034 22.455L51.2651 28.8567C49.6626 28.1117 45.8059 26.6667 40.0026 26.6667C34.1992 26.6667 30.3417 28.1117 28.7401 28.8567L25.8851 22.4208C25.7917 22.2325 25.8334 22.0092 25.9851 21.8758ZM26.2776 44.5883L26.2926 44.5017C27.3534 43.7908 28.5859 42.1917 29.0184 38.6158C29.3367 38.8233 29.6834 38.9825 30.0526 39.0725C30.1826 40.3575 30.6717 43.1008 32.4234 45.5667C31.7309 45.7367 30.9217 45.8333 30.0034 45.8333C27.9176 45.8333 26.8259 45.1567 26.2776 44.5883ZM31.6701 38.3317C31.6684 37.8725 31.2959 37.5 30.8367 37.5C30.3726 37.5 29.9426 37.3133 29.6242 36.975C29.3159 36.6475 29.1617 36.22 29.1784 35.765V35.7108C29.2317 34.8642 30.0351 34.1717 30.9759 34.1658C37.4942 34.1233 40.6676 31.3225 42.1226 29.2583C42.8109 31.3892 44.5676 34.1658 49.0367 34.1658C49.9742 34.1658 50.7742 34.8583 50.8284 35.7158V35.7692C50.8451 36.2192 50.6909 36.6458 50.3826 36.9742C50.0642 37.3125 49.6342 37.4992 49.1701 37.4992C48.7109 37.4992 48.3384 37.8717 48.3367 38.3308C48.3367 38.6433 48.2276 46.0158 41.2176 48.1525C40.4242 48.3975 39.5851 48.3975 38.7884 48.1525C31.7792 46.0158 31.6709 38.6442 31.6701 38.3317Z" fill="white"/>
<path d="M37.4974 22.5026H39.1641V24.1693C39.1641 24.6301 39.5366 25.0027 39.9974 25.0027C40.4583 25.0027 40.8308 24.6301 40.8308 24.1693V22.5026H42.4974C42.9583 22.5026 43.3308 22.1301 43.3308 21.6693C43.3308 21.2084 42.9583 20.8359 42.4974 20.8359H40.8308V19.1693C40.8308 18.7084 40.4583 18.3359 39.9974 18.3359C39.5366 18.3359 39.1641 18.7084 39.1641 19.1693V20.8359H37.4974C37.0366 20.8359 36.6641 21.2084 36.6641 21.6693C36.6641 22.1301 37.0366 22.5026 37.4974 22.5026Z" fill="white"/>
</svg>
