<svg width="80" height="80" viewBox="0 0 80 80" fill="none" xmlns="http://www.w3.org/2000/svg">
<rect width="80" height="80" rx="40" fill="#014B11"/>
<path d="M50.575 40.9375H63V58.5055H18V40.9375H30.425" stroke="white" stroke-width="2.25" stroke-miterlimit="10" stroke-linecap="round" stroke-linejoin="round"/>
<path d="M43.075 49.7734C43.075 51.1918 41.925 52.3614 40.475 52.3614C39.025 52.3614 37.875 51.2167 37.875 49.7734" stroke="white" stroke-width="2.25" stroke-miterlimit="10" stroke-linecap="round" stroke-linejoin="round"/>
<path d="M37.8984 49.7657C38.5734 38.2196 46.1984 21 46.1984 21C39.9984 36.7515 43.0734 49.7657 43.0734 49.7657" stroke="white" stroke-width="2.25" stroke-miterlimit="10" stroke-linecap="round" stroke-linejoin="round"/>
<path d="M45.8031 49.7109C45.8031 52.6223 43.4281 54.9863 40.5031 54.9863C37.5781 54.9863 35.2031 52.6223 35.2031 49.7109" stroke="white" stroke-width="2.25" stroke-miterlimit="10" stroke-linecap="round" stroke-linejoin="round"/>
<path d="M35.1719 49.7215C35.1719 49.7215 35.1969 48.2036 35.7469 47.3327C36.2969 46.4617 36.7469 40.9375 30.4219 40.9375" stroke="white" stroke-width="2.25" stroke-miterlimit="10" stroke-linecap="round" stroke-linejoin="round"/>
<path d="M45.797 49.7215C45.797 49.7215 45.772 48.2036 45.222 47.3327C44.672 46.4617 44.222 40.9375 50.547 40.9375" stroke="white" stroke-width="2.25" stroke-miterlimit="10" stroke-linecap="round" stroke-linejoin="round"/>
</svg>
