<svg width="80" height="80" viewBox="0 0 80 80" fill="none" xmlns="http://www.w3.org/2000/svg">
<rect width="80" height="80" rx="40" fill="#014B11"/>
<path d="M53.188 18.4042C51.7349 16.9627 50.0005 16.1288 48.0337 15.9247C46.2554 15.7401 44.3296 16.0751 42.3091 16.9198C40.7759 17.5614 39.2222 17.5614 37.689 16.9198C35.6685 16.0741 33.7427 15.7391 31.9644 15.9247C29.9976 16.1288 28.2632 16.9627 26.8101 18.4042C24.7017 20.495 23.6089 23.0331 23.564 25.9471C23.522 28.6141 24.3609 31.5311 26.0562 34.6161C26.7505 35.8797 28.0259 36.6336 29.4673 36.6336H29.522L30.0699 38.3749C30.3902 39.3934 31.3228 40.078 32.3911 40.078H34.3892L34.6197 43.2137L33.6255 43.4803C32.3482 43.8231 31.5874 45.1405 31.9292 46.4178C32.2163 47.4881 33.188 48.1961 34.2466 48.1961C34.4517 48.1961 34.6597 48.1698 34.8667 48.1141L34.9781 48.0838L35.0845 49.536L34.1226 49.7938C32.8453 50.1356 32.0845 51.454 32.4263 52.7313C32.7134 53.8016 33.6851 54.5096 34.7437 54.5096C34.9488 54.5096 35.1568 54.4833 35.3638 54.4276L35.4429 54.4061L35.5425 55.7528L34.5337 56.0233C33.2564 56.3661 32.4956 57.6835 32.8374 58.9608C33.0025 59.578 33.3999 60.0946 33.9556 60.4159C34.3267 60.6297 34.7378 60.7391 35.1538 60.7391C35.3609 60.7391 35.5699 60.7118 35.7749 60.6571L35.9009 60.6229L35.9126 60.7801C36.0503 62.6512 37.6275 64.1161 39.5035 64.1161H40.4937C42.3697 64.1161 43.9468 62.6502 44.0845 60.7801L44.2613 58.3827L45.4644 58.0604C46.0816 57.8954 46.5982 57.4979 46.9195 56.9422C47.2408 56.3866 47.3267 55.7401 47.1607 55.1229C46.9956 54.5057 46.5982 53.9891 46.0415 53.6678C45.6079 53.4169 45.1187 53.3104 44.6314 53.3544L44.7378 51.9149L45.8755 51.6102C46.4927 51.4452 47.0093 51.0477 47.3306 50.4911C47.6519 49.9354 47.7378 49.2889 47.5718 48.6717C47.4068 48.0545 47.0093 47.5379 46.4527 47.2167C46.0376 46.9774 45.5728 46.869 45.107 46.8983L45.2222 45.3377L46.3736 45.0292C46.9908 44.8641 47.5074 44.4667 47.8286 43.911C48.1499 43.3553 48.2359 42.7088 48.0699 42.0917C47.9048 41.4745 47.5074 40.9579 46.9507 40.6366C46.5318 40.3944 46.062 40.287 45.5913 40.3182L45.6089 40.076H47.607C48.6753 40.076 49.6079 39.3915 49.9283 38.3729L50.4761 36.6317H50.5308C51.9722 36.6317 53.2476 35.8778 53.9419 34.6141C55.6372 31.5292 56.4761 28.6122 56.4341 25.9452C56.3892 23.0321 55.2964 20.494 53.188 18.4042ZM42.7222 60.6805C42.6353 61.8602 41.6783 62.7499 40.4947 62.7499H39.5044C38.3218 62.7499 37.3638 61.8602 37.2769 60.6805L37.2466 60.2635L42.8638 58.7586L42.7222 60.6805ZM45.3589 54.8534C45.5992 54.992 45.7701 55.2137 45.8404 55.4784C45.9117 55.743 45.8736 56.0204 45.7359 56.2596C45.5972 56.4999 45.3755 56.6708 45.1109 56.7411L35.4224 59.3368C35.1578 59.4071 34.8804 59.37 34.6412 59.2323C34.4009 59.0936 34.23 58.8719 34.1597 58.6073C34.0884 58.3426 34.1265 58.0653 34.2642 57.826C34.4029 57.5868 34.6245 57.4149 34.8882 57.3446L44.5767 54.7489C44.8413 54.6776 45.1187 54.7147 45.3589 54.8534ZM43.2359 53.6922L36.8872 55.3934L36.7876 54.0467L43.3384 52.2919L43.2359 53.6922ZM45.7691 48.4032C46.0093 48.5418 46.1802 48.7635 46.2505 49.0282C46.3218 49.2928 46.2837 49.5702 46.146 49.8094C46.0074 50.0487 45.7857 50.2206 45.522 50.2909L35.0113 53.1073C34.7466 53.1776 34.4693 53.1405 34.23 53.0028C33.9898 52.8641 33.8189 52.6424 33.7486 52.3788C33.6773 52.1141 33.7154 51.8368 33.8531 51.5975C33.9917 51.3583 34.2134 51.1864 34.4771 51.1161L44.9878 48.2997C45.2515 48.2274 45.5298 48.2645 45.7691 48.4032ZM43.7124 47.2245L36.4302 49.1756L36.3238 47.7235L43.8238 45.7137L43.7124 47.2245ZM46.2671 41.8221C46.5074 41.9608 46.6783 42.1825 46.7486 42.4471C46.8199 42.7118 46.7818 42.9891 46.6441 43.2284C46.5054 43.4676 46.2837 43.6395 46.0201 43.7098L34.5132 46.7928C34.2486 46.8641 33.9712 46.826 33.732 46.6883C33.4917 46.5497 33.3208 46.328 33.2505 46.0633C33.1031 45.5145 33.4302 44.9471 33.98 44.7997L45.4859 41.7167C45.7495 41.6463 46.0269 41.6835 46.2671 41.8221ZM44.1968 40.6473L35.9654 42.8534L35.7613 40.078H44.2398L44.1968 40.6473ZM48.6245 37.9647C48.482 38.4178 48.0826 38.7108 47.607 38.7108H32.3921C31.9165 38.7108 31.5171 38.4178 31.3745 37.9647L30.9556 36.6336H49.0435L48.6245 37.9647ZM52.7447 33.9569C52.2876 34.7889 51.481 35.2655 50.5318 35.2655H29.4673C28.5181 35.2655 27.7115 34.7879 27.2544 33.9569C24.9712 29.8026 23.2085 23.9002 27.773 19.3739C29.3706 17.7899 31.1822 17.243 32.9234 17.243C34.4546 17.243 35.9322 17.6668 37.1607 18.1805C39.0435 18.9686 40.9536 18.9686 42.8365 18.1805C45.4624 17.0819 49.2222 16.3973 52.2251 19.3739C56.7906 23.9012 55.0269 29.8026 52.7447 33.9569ZM52.5044 23.0038C52.6607 23.3475 52.5093 23.7528 52.1656 23.909C52.0738 23.951 51.9771 23.9706 51.8824 23.9706C51.6226 23.9706 51.3745 23.8221 51.2603 23.5702C50.9517 22.8924 50.5035 22.2596 49.9292 21.6903C48.5064 20.2792 46.6529 20.12 44.0962 21.1893C43.7476 21.3348 43.3472 21.1708 43.2017 20.8221C43.0562 20.4735 43.2202 20.0731 43.5689 19.9276C46.6138 18.6532 49.0777 18.9198 50.8921 20.7186C51.5845 21.4061 52.1275 22.1747 52.5044 23.0038Z" fill="white"/>
</svg>
