<svg width="80" height="80" viewBox="0 0 80 80" fill="none" xmlns="http://www.w3.org/2000/svg">
<rect width="80" height="80" rx="40" fill="#B2EAFF"/>
<path d="M53.9063 29.688C54.0813 29.8646 54.2064 29.9402 54.5064 29.9907C54.6814 30.0411 55.0815 30.0916 56.0066 29.5367C56.4817 29.2592 57.2069 28.7547 57.907 27.8971C57.707 27.771 57.4319 27.5439 57.2068 27.1908C56.7568 26.5349 56.7318 25.8539 56.7068 25.4503C56.7068 25.4503 56.6068 23.7097 56.3817 22.0701C56.1817 20.5314 56.0566 19.6234 55.3815 18.8919C54.6814 18.1099 53.7062 17.8829 53.1562 17.8072C52.8061 17.5297 52.006 17 50.9058 17C49.1055 17 47.9553 18.463 47.7052 18.791C46.7551 20.0018 46.58 21.4395 46.405 22.8774C46.28 24.1134 46.405 24.7188 46.03 25.7278C45.6549 26.762 45.0048 27.4683 44.5547 27.8971C44.7797 28.1746 45.1298 28.5277 45.5799 28.8808C45.8799 29.1079 46.305 29.4358 46.9301 29.6628C47.5052 29.8898 48.4304 30.0412 48.8804 29.6628" stroke="#003588" stroke-width="2.25004" stroke-miterlimit="10" stroke-linecap="round" stroke-linejoin="round"/>
<path d="M48.848 29.6953C48.848 29.6953 48.923 30.6539 48.498 31.0827C48.0729 31.5115 44.9724 32.5457 44.0222 33.3277C43.0471 34.1096 42.0469 35.3457 42.0469 36.6069H50.5983" stroke="#003588" stroke-width="2.25004" stroke-miterlimit="10" stroke-linecap="round" stroke-linejoin="round"/>
<path d="M53.9062 29.6953C53.9062 29.6953 54.2563 30.8052 54.9313 31.461" stroke="#003588" stroke-width="1.50003" stroke-miterlimit="10" stroke-linecap="round" stroke-linejoin="round"/>
<path d="M48.7266 30.7031C48.7266 30.7031 51.2016 32.595 54.1017 30.7031" stroke="#003588" stroke-width="1.50003" stroke-miterlimit="10" stroke-linecap="round" stroke-linejoin="round"/>
<path d="M51.9221 38.8152L51.8221 38.7143C51.647 38.5378 51.6471 38.2603 51.7971 38.0837L58.0731 30.6172L60.1235 32.7361L52.5472 38.8405C52.3721 39.017 52.0971 38.9918 51.9221 38.8152Z" stroke="#003588" stroke-width="1.50003" stroke-miterlimit="10" stroke-linecap="round" stroke-linejoin="round"/>
<path d="M62.9282 30.145L62.8032 29.9432C62.3532 29.1612 61.7282 28.5054 60.9532 28.0261L60.7282 27.8747C60.5282 27.7486 60.2532 27.7991 60.1032 27.9757L58.0781 30.6242L60.1282 32.7431L62.8032 30.7504C63.0032 30.6242 63.0532 30.3468 62.9282 30.145Z" stroke="#003588" stroke-width="1.50003" stroke-miterlimit="10" stroke-linecap="round" stroke-linejoin="round"/>
<path d="M58.3891 34.1797H61.4392C61.7642 34.1797 62.0392 34.4572 62.0392 34.7851V38.367C62.0392 38.6949 61.7642 38.9724 61.4392 38.9724H55.5141C55.1891 38.9724 54.9141 38.6949 54.9141 38.367V36.9796" stroke="#003588" stroke-width="2.25004" stroke-miterlimit="10" stroke-linecap="round" stroke-linejoin="round"/>
<path d="M32.578 52.5689C37.1903 52.5689 40.9294 48.7968 40.9294 44.1438C40.9294 39.4908 37.1903 35.7188 32.578 35.7188C27.9656 35.7188 24.2266 39.4908 24.2266 44.1438C24.2266 48.7968 27.9656 52.5689 32.578 52.5689Z" stroke="#003588" stroke-width="2.25004" stroke-miterlimit="10" stroke-linecap="round" stroke-linejoin="round"/>
<path d="M39.5637 49.0769L37.1953 51.3594L43.2749 57.7794L45.6433 55.4968L39.5637 49.0769Z" stroke="#003588" stroke-width="2.25004" stroke-miterlimit="10" stroke-linecap="round" stroke-linejoin="round"/>
<path d="M30.5771 26.4609C30.5771 32.3383 18 37.7616 18 44.2191C18 50.7018 30.5771 56.0999 30.5771 61.9773" stroke="#003588" stroke-width="2.25004" stroke-miterlimit="10" stroke-linecap="round" stroke-linejoin="round"/>
<path d="M18 62.0026C18 58.5216 22.4501 55.1919 26.0501 51.7109" stroke="#003588" stroke-width="2.25004" stroke-miterlimit="10" stroke-linecap="round" stroke-linejoin="round"/>
<path d="M18 26.4609C18 29.9419 22.4001 33.2716 26.0001 36.7274" stroke="#003588" stroke-width="2.25004" stroke-miterlimit="10" stroke-linecap="round" stroke-linejoin="round"/>
<path d="M18.9766 29.4375H29.6034" stroke="#003588" stroke-width="2.25004" stroke-miterlimit="10" stroke-linecap="round" stroke-linejoin="round"/>
<path d="M18.9766 59.0234H29.7034" stroke="#003588" stroke-width="2.25004" stroke-miterlimit="10" stroke-linecap="round" stroke-linejoin="round"/>
<path d="M19.8047 48.6875H23.9798" stroke="#003588" stroke-width="2.25004" stroke-miterlimit="10" stroke-linecap="round" stroke-linejoin="round"/>
<path d="M19.8047 39.8047H23.9798" stroke="#003588" stroke-width="2.25004" stroke-miterlimit="10" stroke-linecap="round" stroke-linejoin="round"/>
<path d="M18 44.2109H22.7251" stroke="#003588" stroke-width="2.25004" stroke-miterlimit="10" stroke-linecap="round" stroke-linejoin="round"/>
<path d="M32.578 52.5689C37.1903 52.5689 40.9294 48.7968 40.9294 44.1438C40.9294 39.4908 37.1903 35.7188 32.578 35.7188C27.9656 35.7188 24.2266 39.4908 24.2266 44.1438C24.2266 48.7968 27.9656 52.5689 32.578 52.5689Z" stroke="#003588" stroke-width="2.25004" stroke-miterlimit="10" stroke-linecap="round" stroke-linejoin="round"/>
<path d="M39.5637 49.0769L37.1953 51.3594L43.2749 57.7794L45.6433 55.4968L39.5637 49.0769Z" stroke="#003588" stroke-width="2.25004" stroke-miterlimit="10" stroke-linecap="round" stroke-linejoin="round"/>
<path d="M30.5771 26.4609C30.5771 32.3383 18 37.7616 18 44.2191C18 50.7018 30.5771 56.0999 30.5771 61.9773" stroke="#003588" stroke-width="2.25004" stroke-miterlimit="10" stroke-linecap="round" stroke-linejoin="round"/>
<path d="M18 62.0026C18 58.5216 22.4501 55.1919 26.0501 51.7109" stroke="#003588" stroke-width="2.25004" stroke-miterlimit="10" stroke-linecap="round" stroke-linejoin="round"/>
<path d="M18 26.4609C18 29.9419 22.4001 33.2716 26.0001 36.7274" stroke="#003588" stroke-width="2.25004" stroke-miterlimit="10" stroke-linecap="round" stroke-linejoin="round"/>
<path d="M18.9766 29.4375H29.6034" stroke="#003588" stroke-width="2.25004" stroke-miterlimit="10" stroke-linecap="round" stroke-linejoin="round"/>
<path d="M18.9766 59.0234H29.7034" stroke="#003588" stroke-width="2.25004" stroke-miterlimit="10" stroke-linecap="round" stroke-linejoin="round"/>
<path d="M19.8047 48.6875H23.9798" stroke="#003588" stroke-width="2.25004" stroke-miterlimit="10" stroke-linecap="round" stroke-linejoin="round"/>
<path d="M19.8047 39.8047H23.9798" stroke="#003588" stroke-width="2.25004" stroke-miterlimit="10" stroke-linecap="round" stroke-linejoin="round"/>
<path d="M18 44.2109H22.7251" stroke="#003588" stroke-width="2.25004" stroke-miterlimit="10" stroke-linecap="round" stroke-linejoin="round"/>
</svg>
