<svg width="16" height="17" viewBox="0 0 16 17" fill="none" xmlns="http://www.w3.org/2000/svg">
<g clip-path="url(#clip0_849_14951)">
<path d="M8.00163 0.5C4.80647 0.5 2.20703 3.09944 2.20703 6.29456C2.20703 10.2598 7.39263 16.081 7.61341 16.3269C7.82078 16.5579 8.18285 16.5575 8.38984 16.3269C8.61063 16.081 13.7962 10.2598 13.7962 6.29456C13.7961 3.09944 11.1967 0.5 8.00163 0.5ZM8.00163 9.20997C6.39406 9.20997 5.08625 7.90212 5.08625 6.29456C5.08625 4.687 6.39409 3.37919 8.00163 3.37919C9.60916 3.37919 10.917 4.68703 10.917 6.29459C10.917 7.90216 9.60916 9.20997 8.00163 9.20997Z" fill="#D6D7D8"/>
</g>
<defs>
<clipPath id="clip0_849_14951">
<rect width="16" height="16" fill="white" transform="translate(0 0.5)"/>
</clipPath>
</defs>
</svg>
