<svg width="80" height="80" viewBox="0 0 80 80" fill="none" xmlns="http://www.w3.org/2000/svg">
<rect width="80" height="80" rx="40" fill="#003588"/>
<path d="M28.2032 46.1562C22.5845 46.1562 18 50.7397 18 56.4199V60.3848C18 61.2846 18.7268 62.0157 19.6213 62.0157H38.3785V56.4199C38.4065 50.7397 33.85 46.1562 28.2032 46.1562Z" stroke="white" stroke-width="2.10927" stroke-miterlimit="10" stroke-linecap="round"/>
<path d="M50.3225 46.1562H46.9121C42.2158 46.1562 38.4141 49.9805 38.4141 54.7046V62.0157H44.8994" stroke="white" stroke-width="2.10927" stroke-miterlimit="10" stroke-linecap="round"/>
<path d="M31.7031 41.2344V46.4091" stroke="white" stroke-width="2.10927" stroke-miterlimit="10" stroke-linecap="round"/>
<path d="M45.1094 41.2344V46.4091" stroke="white" stroke-width="2.10927" stroke-miterlimit="10" stroke-linecap="round"/>
<path d="M50.7908 24.4047V29.41C50.7908 36.2712 45.2279 43.8635 38.4071 43.8635C31.5863 43.8635 26.0234 36.2712 26.0234 29.41V24.3203" stroke="white" stroke-width="2.10927" stroke-miterlimit="10" stroke-linecap="round"/>
<path d="M50.2344 24.3136L47.439 23.9761C41.4568 23.2449 35.3908 23.2449 29.4086 23.9761L26.6132 24.3136C25.8305 24.3136 25.1875 23.6668 25.1875 22.8793V19.5045C25.1875 16.8608 27.34 14.6953 29.9677 14.6953H46.9079C49.5356 14.6953 51.688 16.8608 51.688 19.5045V22.8793C51.6601 23.6668 51.0171 24.3136 50.2344 24.3136Z" stroke="white" stroke-width="2.10927" stroke-miterlimit="10" stroke-linecap="round"/>
<path d="M25.3514 32.7216C24.0656 32.6372 23.0312 31.456 23.0312 29.9936C23.0312 28.5312 24.0656 27.3219 25.3514 27.2656" stroke="white" stroke-width="2.10927" stroke-miterlimit="10" stroke-linecap="round"/>
<path d="M51.4609 32.7216C52.7468 32.6372 53.7811 31.456 53.7811 29.9936C53.7811 28.5312 52.7468 27.3219 51.4609 27.2656" stroke="white" stroke-width="2.10927" stroke-miterlimit="10" stroke-linecap="round"/>
<path d="M39.8653 39.5044H36.9861C35.169 39.5044 33.6875 38.0138 33.6875 36.1858C33.6875 34.3577 35.169 32.8672 36.9861 32.8672H39.8653C41.6824 32.8672 43.1639 34.3577 43.1639 36.1858C43.136 38.0138 41.6544 39.5044 39.8653 39.5044Z" stroke="white" stroke-width="2.10927" stroke-miterlimit="10" stroke-linecap="round"/>
<path d="M26.4688 32.8672C26.4688 32.8672 29.2642 35.6795 33.653 36.5514" stroke="white" stroke-width="2.10927" stroke-miterlimit="10" stroke-linecap="round"/>
<path d="M50.3404 32.8672C50.3404 32.8672 47.545 35.6795 43.1562 36.5514" stroke="white" stroke-width="2.10927" stroke-miterlimit="10" stroke-linecap="round"/>
<path d="M43.6876 28.8358C44.3824 28.8358 44.9455 28.2692 44.9455 27.5703C44.9455 26.8713 44.3824 26.3047 43.6876 26.3047C42.9929 26.3047 42.4297 26.8713 42.4297 27.5703C42.4297 28.2692 42.9929 28.8358 43.6876 28.8358Z" fill="white"/>
<path d="M33.6798 28.8358C34.3745 28.8358 34.9377 28.2692 34.9377 27.5703C34.9377 26.8713 34.3745 26.3047 33.6798 26.3047C32.9851 26.3047 32.4219 26.8713 32.4219 27.5703C32.4219 28.2692 32.9851 28.8358 33.6798 28.8358Z" fill="white"/>
<path d="M49.7247 65.1747C47.4045 64.3592 47.097 60.1131 47.8517 57.9479L52.576 44.3661C53.0792 42.932 54.6167 42.2009 56.0144 42.7071L58.698 43.6631C60.1236 44.1693 60.8504 45.7159 60.3472 47.1219L55.623 60.7036C54.8962 62.8689 52.1567 66.0464 49.7247 65.1747Z" stroke="white" stroke-width="2.10927" stroke-miterlimit="10" stroke-linecap="round"/>
<path d="M60.015 44.5928C60.015 44.5928 59.4839 43.3836 60.3784 41.9495C61.273 40.5154 63.8727 38.2096 62.6986 31.1797C62.6986 31.1797 55.6262 33.2043 55.9617 39.7843C55.9617 39.7843 56.1574 42.3994 53.7812 42.9337" stroke="white" stroke-width="2.10927" stroke-miterlimit="10" stroke-linecap="round"/>
<path d="M54.3047 47.4062L57.2958 48.4749" stroke="white" stroke-width="2.10927" stroke-miterlimit="10" stroke-linecap="round"/>
<path d="M53.3594 49.9141L56.3505 50.9828" stroke="white" stroke-width="2.10927" stroke-miterlimit="10" stroke-linecap="round"/>
<path d="M52.3828 52.3828L55.4019 53.4234" stroke="white" stroke-width="2.10927" stroke-miterlimit="10" stroke-linecap="round"/>
</svg>
