<svg width="80" height="80" viewBox="0 0 80 80" fill="none" xmlns="http://www.w3.org/2000/svg">
<rect width="80" height="80" rx="40" fill="#266AFB"/>
<path d="M39.948 34.8198C39.9347 34.8198 39.9218 34.8198 39.9089 34.8198C39.3564 34.7889 38.8076 34.717 38.2683 34.6047C38.117 34.5726 37.9861 34.4877 37.9044 34.3687C37.8227 34.2497 37.7968 34.1064 37.8325 33.9703C37.8682 33.8342 37.9625 33.7164 38.0947 33.6428C38.2269 33.5693 38.3862 33.546 38.5374 33.5781C39.0137 33.6772 39.4983 33.7404 39.9862 33.7673C40.1416 33.7719 40.2886 33.832 40.3948 33.9342C40.5011 34.0363 40.5578 34.1723 40.5526 34.3122C40.5475 34.452 40.4808 34.5843 40.3672 34.6799C40.2537 34.7755 40.1026 34.8266 39.9472 34.822L39.948 34.8198ZM41.5105 34.8104C41.3593 34.8101 41.2141 34.7572 41.1053 34.6628C40.9964 34.5685 40.9323 34.4399 40.9263 34.3039C40.9203 34.168 40.9729 34.0353 41.0731 33.9334C41.1733 33.8316 41.3133 33.7685 41.464 33.7574C41.9472 33.726 42.426 33.6535 42.894 33.5409C43.0439 33.5036 43.204 33.5214 43.3392 33.5903C43.4744 33.6593 43.5737 33.7738 43.6151 33.9086C43.6566 34.0434 43.6368 34.1875 43.5602 34.3092C43.4836 34.431 43.3564 34.5203 43.2065 34.5576C42.667 34.6875 42.1151 34.7715 41.5581 34.8086C41.5398 34.8096 41.5241 34.8104 41.5085 34.8104H41.5105ZM36.9429 34.1259C36.8402 34.1261 36.7392 34.1019 36.6503 34.0555C36.3441 33.9178 36.0736 33.7236 35.8562 33.4857C35.6389 33.2477 35.4795 32.9712 35.3886 32.6743C35.355 32.5377 35.3831 32.3947 35.4667 32.2767C35.5503 32.1588 35.6825 32.0755 35.8343 32.0453C35.9861 32.0151 36.1449 32.0404 36.276 32.1156C36.4071 32.1908 36.4995 32.3098 36.5331 32.4464C36.6567 32.7528 36.9093 33.0031 37.2362 33.1432C37.3482 33.2012 37.4357 33.2909 37.4852 33.3983C37.5347 33.5057 37.5433 33.6248 37.5098 33.7371C37.4763 33.8493 37.4025 33.9485 37.2999 34.0191C37.1973 34.0898 37.0717 34.1279 36.9425 34.1276L36.9429 34.1259ZM44.4503 33.9782C44.3299 33.9782 44.2124 33.9449 44.1138 33.8827C44.0152 33.8204 43.9403 33.7324 43.8993 33.6305C43.8583 33.5286 43.8531 33.4178 43.8845 33.3132C43.916 33.2086 43.9824 33.1153 44.0749 33.0459C44.1692 32.9904 44.2473 32.9153 44.3027 32.8269C44.358 32.7386 44.389 32.6396 44.3929 32.5382C44.3909 32.4605 44.3901 32.4014 44.3901 32.3431C44.3901 32.29 44.3901 32.2376 44.3925 32.1859C44.3945 32.1167 44.4116 32.0485 44.4428 31.9852C44.4741 31.9219 44.5189 31.8647 44.5747 31.817C44.6305 31.7693 44.6962 31.732 44.7681 31.7071C44.8399 31.6822 44.9165 31.6704 44.9935 31.6721C45.0704 31.6739 45.1462 31.6893 45.2165 31.7174C45.2869 31.7456 45.3504 31.7859 45.4034 31.8362C45.4564 31.8864 45.4979 31.9455 45.5255 32.0102C45.5531 32.0748 45.5663 32.1438 45.5644 32.213V32.3431C45.5644 32.3916 45.5644 32.4412 45.5667 32.4914V32.5382C45.5617 32.7938 45.4926 33.0451 45.3645 33.2733C45.2363 33.5015 45.0526 33.7006 44.8269 33.8559C44.7215 33.9352 44.5884 33.9786 44.4511 33.9782H44.4503ZM35.3999 31.7943C35.3079 31.7943 35.2171 31.7748 35.135 31.7374C35.0528 31.6999 34.9817 31.6456 34.9273 31.5788C34.6334 31.2486 34.2929 30.9543 33.9144 30.7034C33.7963 30.6151 33.7215 30.4886 33.706 30.3512C33.6905 30.2137 33.7355 30.0763 33.8314 29.9684C33.9273 29.8606 34.0665 29.7909 34.2188 29.7743C34.3712 29.7578 34.5248 29.7958 34.6464 29.88C35.1057 30.1876 35.5174 30.5489 35.8706 30.9544C35.9346 31.033 35.9732 31.126 35.9821 31.2231C35.9909 31.3202 35.9697 31.4176 35.9208 31.5045C35.8719 31.5914 35.7972 31.6645 35.705 31.7155C35.6127 31.7665 35.5066 31.7936 35.3983 31.7936L35.3999 31.7943ZM45.2667 31.3538C45.1717 31.3538 45.0781 31.3329 44.994 31.2931C44.9099 31.2533 44.8379 31.1956 44.784 31.1251C44.7302 31.0547 44.6963 30.9735 44.6851 30.8885C44.6739 30.8036 44.6858 30.7175 44.7198 30.6377C44.9358 30.1459 45.2435 29.6909 45.6296 29.2922C45.73 29.1855 45.8735 29.119 46.0284 29.1074C46.1833 29.0958 46.3369 29.1401 46.4556 29.2305C46.5742 29.3209 46.6481 29.45 46.6609 29.5894C46.6738 29.7288 46.6246 29.8671 46.5241 29.9739C46.2218 30.2811 45.9814 30.6335 45.814 31.0152C45.7715 31.1149 45.6965 31.2006 45.5988 31.261C45.5011 31.3215 45.3853 31.3538 45.2667 31.3538ZM33.1413 29.8635C33.0506 29.8638 32.961 29.8451 32.8797 29.8089C32.7983 29.7728 32.7274 29.7201 32.6726 29.655C32.2735 29.1905 32.0612 28.6179 32.0706 28.0308C32.0706 27.7397 33.2425 27.7397 33.2425 28.0308C33.2325 28.3877 33.3611 28.7366 33.6062 29.0173C33.6721 29.0955 33.7125 29.1887 33.7228 29.2864C33.7331 29.3842 33.7128 29.4826 33.6644 29.5705C33.6159 29.6585 33.5411 29.7325 33.4484 29.7843C33.3557 29.836 33.2488 29.8635 33.1398 29.8635H33.1413ZM47.0898 29.0929C46.986 29.0928 46.8841 29.0679 46.7945 29.0208C46.7049 28.9736 46.6309 28.9059 46.5799 28.8246C46.5289 28.7432 46.5028 28.6512 46.5044 28.5578C46.5059 28.4644 46.535 28.373 46.5886 28.2931C46.6481 28.217 46.6818 28.127 46.6855 28.034C46.6855 27.7429 47.8573 27.7436 47.8573 28.034C47.8539 28.3187 47.762 28.5968 47.5921 28.837C47.54 28.915 47.4664 28.9796 47.3784 29.0245C47.2903 29.0693 47.1909 29.0929 47.0898 29.0929Z" fill="white"/>
<path d="M40 27.7348C39.8446 27.7348 39.6956 27.6792 39.5857 27.5803C39.4758 27.4815 39.4141 27.3473 39.4141 27.2075V24.4023C39.4141 24.2625 39.4758 24.1284 39.5857 24.0295C39.6956 23.9306 39.8446 23.875 40 23.875C40.1554 23.875 40.3044 23.9306 40.4143 24.0295C40.5242 24.1284 40.5859 24.2625 40.5859 24.4023V27.2075C40.5859 27.3473 40.5242 27.4815 40.4143 27.5803C40.3044 27.6792 40.1554 27.7348 40 27.7348Z" fill="white"/>
<path d="M64.0552 23.0956H57.5927V22.1211C57.5927 21.9812 57.531 21.8471 57.4211 21.7482C57.3112 21.6493 57.1622 21.5937 57.0068 21.5937C56.8514 21.5937 56.7023 21.6493 56.5925 21.7482C56.4826 21.8471 56.4208 21.9812 56.4208 22.1211V23.0956H52.7619C52.5499 23.0955 52.3406 23.053 52.149 22.9714C51.9574 22.8898 51.7883 22.7709 51.6539 22.6235C51.5194 22.476 51.4229 22.3035 51.3714 22.1185C51.3198 21.9335 51.3144 21.7404 51.3556 21.5533C51.4297 21.2552 51.616 20.9893 51.883 20.8005C52.1499 20.6118 52.4811 20.5119 52.8205 20.5176H64.0544C64.2098 20.5176 64.3589 20.462 64.4688 20.3632C64.5786 20.2643 64.6404 20.1301 64.6404 19.9903C64.6404 19.8504 64.5786 19.7163 64.4688 19.6174C64.3589 19.5185 64.2098 19.4629 64.0544 19.4629H52.7619C52.1915 19.4639 51.6372 19.6332 51.1841 19.9449C50.7309 20.2567 50.4039 20.6936 50.2533 21.1887L42.7998 19.9512C42.7186 19.6454 42.5248 19.3733 42.2499 19.1793C41.9749 18.9852 41.6351 18.8808 41.2857 18.8828H38.756C38.5346 18.8828 38.3157 18.925 38.1137 19.0066C37.9117 19.0882 37.7312 19.2073 37.5841 19.3562C37.4369 19.5051 37.3264 19.6803 37.2599 19.8704C37.1934 20.0604 37.1724 20.261 37.1982 20.4589L37.6138 23.6317C37.6607 23.9883 37.8512 24.317 38.1493 24.5556C38.4475 24.7941 38.8325 24.926 39.2314 24.9262H40.8099C41.2088 24.926 41.5938 24.7941 41.892 24.5556C42.1901 24.317 42.3806 23.9883 42.4275 23.6317L42.7701 21.0175L50.2072 22.2529C50.3413 22.797 50.6797 23.2829 51.1654 23.6287C51.6511 23.9745 52.2544 24.1591 52.8736 24.1514H64.0552C64.2106 24.1514 64.3597 24.0958 64.4695 23.9969C64.5794 23.898 64.6412 23.7639 64.6412 23.624C64.6412 23.4842 64.5794 23.35 64.4695 23.2511C64.3597 23.1522 64.2106 23.0967 64.0552 23.0967V23.0956ZM41.2634 23.5091C41.2504 23.6091 41.197 23.7013 41.1134 23.7683C41.0298 23.8352 40.9218 23.8722 40.8099 23.8722H39.2314C39.1195 23.8721 39.0116 23.8351 38.928 23.7682C38.8444 23.7013 38.791 23.6091 38.7779 23.5091L38.3607 20.3359C38.3542 20.2858 38.3595 20.2351 38.3764 20.187C38.3932 20.139 38.4212 20.0947 38.4584 20.057C38.4956 20.0194 38.5413 19.9893 38.5924 19.9687C38.6435 19.9481 38.6988 19.9375 38.7548 19.9375H41.2845C41.3407 19.9372 41.3963 19.9476 41.4477 19.9681C41.4991 19.9885 41.545 20.0186 41.5825 20.0563C41.62 20.0939 41.6482 20.1383 41.6652 20.1865C41.6821 20.2347 41.6875 20.2856 41.681 20.3359L41.2634 23.5091Z" fill="white"/>
<path d="M55.5454 31.1096C52.9555 27.111 46.9125 26.7084 42.5653 28.6294C41.8015 28.9639 40.9656 29.1442 40.1163 29.1574C39.267 29.1707 38.4247 29.0166 37.6485 28.706C37.5875 28.6814 37.0981 28.4722 36.9129 28.4008C32.6211 26.7485 26.968 27.2783 24.4868 31.1096C21.1098 36.3236 24.3715 43.7687 27.7012 49.0984C28.9344 51.0713 29.5258 53.6842 30.0481 55.989C30.8262 59.4255 31.5637 62.6838 34.3672 62.6838C34.5749 62.683 34.7821 62.6666 34.9868 62.6346C37.0614 62.3199 37.4598 58.8943 37.9211 54.9276C38.2571 52.0374 38.7176 48.0795 40.0164 48.0795C41.3153 48.0795 41.7743 52.0374 42.1114 54.9276C42.5723 58.8943 42.9707 62.3199 45.045 62.6346C48.3653 63.137 49.1512 59.666 49.9836 55.9901C50.5055 53.6845 51.0973 51.0717 52.3301 49.0994C55.6606 43.7687 58.9219 36.3236 55.5454 31.1096ZM51.309 48.5816C49.9856 50.6987 49.3747 53.398 48.8356 55.7791C47.9723 59.5922 47.3379 61.9139 45.2418 61.595C44.0454 61.4133 43.6012 57.6016 43.2789 54.8183C42.7926 50.6347 42.3731 47.0252 40.0184 47.0252C37.6637 47.0252 37.245 50.6365 36.7575 54.8183C36.434 57.6016 35.9907 61.4136 34.7938 61.595C32.6997 61.9114 32.0618 59.5911 31.1981 55.7788C30.659 53.3973 30.0477 50.6983 28.7247 48.5816C25.5434 43.4931 22.4016 36.4235 25.4989 31.6398C26.8715 29.5195 29.4887 28.5928 32.184 28.5928C33.7959 28.594 35.3878 28.9141 36.8469 29.5304C36.8813 29.5455 37.2786 29.7255 37.3696 29.773C37.9065 30.0601 38.3927 30.4179 38.8122 30.8344C39.4051 31.3793 39.9653 31.894 41.1665 31.9998C41.2439 32.0081 41.3224 32.0024 41.3973 31.9831C41.4723 31.9637 41.5422 31.9311 41.603 31.8872C41.6637 31.8432 41.7142 31.7887 41.7512 31.727C41.7883 31.6653 41.8114 31.5975 41.819 31.5277C41.8266 31.4578 41.8187 31.3873 41.7956 31.3203C41.7726 31.2532 41.7349 31.191 41.6848 31.1372C41.6346 31.0835 41.5731 31.0392 41.5038 31.0072C41.4344 30.9751 41.3586 30.9558 41.2809 30.9504C40.9843 30.9243 40.6967 30.8441 40.4356 30.7149C40.1746 30.5856 39.9454 30.4099 39.7622 30.1984C40.9091 30.2401 42.0497 30.026 43.0825 29.5751C46.8633 27.9037 52.3172 28.218 54.5332 31.6398C57.6305 36.4235 54.4887 43.4931 51.309 48.5816Z" fill="white"/>
</svg>
