<svg width="12" height="12" viewBox="0 0 12 12" fill="none" xmlns="http://www.w3.org/2000/svg">
<path d="M11.4485 4.58646C11.3733 4.35403 11.1672 4.18895 10.9233 4.16697L7.6103 3.86615L6.30026 0.79987C6.20367 0.575151 5.98368 0.429688 5.73925 0.429688C5.49483 0.429688 5.27484 0.575151 5.17825 0.800395L3.86821 3.86615L0.554701 4.16697C0.311242 4.18948 0.105615 4.35403 0.0300369 4.58646C-0.0455407 4.81888 0.0242569 5.07381 0.208428 5.23452L2.71265 7.43073L1.97421 10.6836C1.92018 10.9227 2.01301 11.17 2.21145 11.3134C2.31812 11.3905 2.44292 11.4297 2.56876 11.4297C2.67727 11.4297 2.7849 11.4004 2.88149 11.3426L5.73925 9.63466L8.59597 11.3426C8.80501 11.4684 9.06852 11.4569 9.26653 11.3134C9.46506 11.1695 9.55781 10.9222 9.50377 10.6836L8.76534 7.43073L11.2696 5.23495C11.4537 5.07381 11.524 4.81932 11.4485 4.58646Z" fill="#FFC700"/>
</svg>
